<svg xmlns="http://www.w3.org/2000/svg"><symbol id="ship-1" viewBox="0 0 252 252"><path d="M126 .4l109 62.9v125.8L126 252 17.1 189.1V63.3L126 .4z"/><path fill="#fff" d="M64.5 177.2l-4.8-6.8a2.2 2.2 0 0 1 .2-2.5L77 147.7h-8.4a2 2 0 0 1-2.1-2.1v-14.9a2 2 0 0 1 2.1-2.1h12a57.7 57.7 0 0 1-2.3-15.6 48.9 48.9 0 0 1 97.7 0 50.7 50.7 0 0 1-2.3 15.7h12a2 2 0 0 1 2.1 2.1v14.9a2 2 0 0 1-2.1 2.1h-10.5l16.9 20.2a2.2 2.2 0 0 1 0 2.5l-4.8 6.8a2.2 2.2 0 0 1-2.7.6l-9.9-5.2H77.1l-9.9 5.2a2.3 2.3 0 0 1-2.7-.7zm31.4-29.5H82.2L64 169.2l2.9 4.1 34.9-18.4zm-25.2-14.9v10.7h113v-10.7zm14.3-4.1h84.5A49.9 49.9 0 0 0 172 113a44.7 44.7 0 0 0-89.5 0c-.1 5.3.3 10.9 2.4 15.7zm19.8 29.5l-19.7 10.4h28.1zm-3.5-10.5l17.4 20.9h14.9l17.4-20.9zm46.1 10.5l-8.5 10.3H167zm22.5-10.5h-13.7l-6.2 7.2 35.1 18.4 2.9-3.9z"/></symbol><symbol id="ship-2" viewBox="0 0 252 252"><path d="M126 .4l109 62.9v125.8L126 252 17.1 189.1V63.3L126 .4z"/><path fill="#fff" d="M62.8 172.7a2.1 2.1 0 1 1 0-4.1h10.3v-13H62.8a2 2 0 0 1-2.1-2.1v-40.7a2 2 0 0 1 2.1-2.1h13.6c1-29.3 22.9-45.5 49.6-45.5s48.6 16.1 49.6 45.5h13.6a2 2 0 0 1 2.1 2.1v40.7a2 2 0 0 1-2.1 2.1h-10.3v13h10.3a2.1 2.1 0 1 1 0 4.1zm2.1-57.8v36.6h122.3v-36.7zm12.4 40.7v13h13.2v-13zm3.3-44.8h90.9c-1-26.7-21.3-41.3-45.5-41.3s-44.4 14.6-45.4 41.2zm14 44.8v13h20.7v-13zm24.8 0v13h13.2v-13zm56-14H125a2.1 2.1 0 1 1 0-4.1h50.4a2.1 2.1 0 0 1 0 4.1zm-38.6 14v13h20.7v-13zm24.8 0v13h13.2v-13z"/></symbol><symbol id="ship-3" viewBox="0 0 252 252"><path d="M127 .4l109 62.9v125.8L127 252 18.1 189.1V63.3L127 .4z"/><path fill="#fff" d="M67.3 172.7a2 2 0 0 1-2.1-2.1v-25H38a2.1 2.1 0 0 1 0-4.1h15.5v-13.4a2 2 0 0 1 2.1-2.1h8.1a65.5 65.5 0 0 1 63.2-50.2c.2-.2.4-.2.8 0 30.6.2 56 21.7 62.8 50.2h8.1a2 2 0 0 1 2.1 2.1v13.4h15.5a2.1 2.1 0 1 1 0 4.1h-27.4v25a2 2 0 0 1-2.1 2.1zm-9.7-42.6v11.4h138.8v-11.4zm65.3-50c-26.4 1.7-48.6 20.9-55 45.9H90zm-53.5 65.5v22.9H125v-22.9zM125 84.3L95.2 126H125zm4.1-4.3v46h57a61.4 61.4 0 0 0-57-46.1zm0 65.7v22.9h9.3v-23zm13.4 0v22.9h42.1v-23z"/></symbol></svg>